<svg width="200" height="200" viewBox="0 0 200 200" fill="none" xmlns="http://www.w3.org/2000/svg">
  <rect width="200" height="200" fill="#f3f4f6"/>
  <path d="M60 80C60 68.9543 68.9543 60 80 60H120C131.046 60 140 68.9543 140 80V120C140 131.046 131.046 140 120 140H80C68.9543 140 60 131.046 60 120V80Z" fill="#d1d5db"/>
  <path d="M70 90L85 105L95 95L110 110L130 90V120C130 126.627 124.627 132 118 132H82C75.3726 132 70 126.627 70 120V90Z" fill="#9ca3af"/>
  <circle cx="85" cy="85" r="8" fill="#6b7280"/>
</svg> 