<svg className="fill-foreground" xmlns="http://www.w3.org/2000/svg" xmlns:xlink="http://www.w3.org/1999/xlink" viewBox="0 0 1300 500"><defs><path id="a" d="M0 0L528.223 0 528.223 88 0 88z"></path></defs><g fill="#ccffff" fill-rule="evenodd" transform="translate(386 206)"><g fill="#ccffff" fill-rule="nonzero" mask="url(#b)"><g transform="translate(.105 .05)"><path d="M54.026 85.505l21.696-5.392s-9.341-63.155-9.4-63.588c-.06-.434-.439-.674-.753-.7-.312-.026-6.42-.12-6.42-.12s-3.723-3.615-5.123-4.984v74.784zM51.664 10l-2.566.795a18.005 18.005 0 0 0-1.228-3.019c-1.819-3.47-4.483-5.306-7.701-5.31h-.012c-.224 0-.445.02-.669.04a9.969 9.969 0 0 0-.29-.336c-1.402-1.5-3.2-2.23-5.354-2.166-4.156.119-8.296 3.12-11.653 8.453-2.361 3.752-4.159 8.465-4.668 12.115-4.773 1.478-8.11 2.51-8.184 2.535-2.41.757-2.486.83-2.8 3.102C6.304 27.925 0 76.669 0 76.669l52.298 9.043V9.892a3.05 3.05 0 0 0-.634.108zm-12.076 3.74l-8.82 2.73c.852-3.264 2.469-6.513 4.454-8.644.738-.792 1.771-1.676 2.995-2.18 1.15 2.4 1.4 5.796 1.371 8.094zM33.925 2.77c.976-.021 1.797.193 2.5.655-1.124.583-2.21 1.42-3.229 2.514-2.64 2.832-4.663 7.23-5.47 11.471-2.516.779-4.978 1.543-7.244 2.243 1.43-6.678 7.027-16.697 13.443-16.883zm-8.087 38.038c.281 4.45 11.986 5.42 12.643 15.843.517 8.198-4.35 13.807-11.36 14.25-8.415.53-13.047-4.435-13.047-4.435l1.783-7.587s4.663 3.518 8.396 3.283c2.437-.155 3.309-2.138 3.22-3.54-.366-5.804-9.898-5.461-10.5-14.997-.507-8.025 4.764-16.157 16.392-16.89 4.48-.283 6.775.862 6.775.862l-2.659 9.948s-2.966-1.35-6.482-1.129c-5.159.326-5.213 3.578-5.16 4.392zm16.514-27.923c-.031-2.104-.281-5.033-1.262-7.563 3.154.597 4.706 4.166 5.363 6.294-1.216.374-2.602.802-4.101 1.269zM313.236 86.07l7.327-39.063a263.51 263.51 0 0 0 2.063-12.614h3.135l-1.145 7.414h.151c3.289-4.968 7.876-8.179 12.768-8.179 6.958 0 9.555 5.962 9.555 11.926 0 12.385-8.486 26.289-20.182 26.289-3.593 0-5.964-.84-7.338-1.604h-.154l-2.896 15.817-3.284.014zm6.879-19.189c1.682 1.3 4.129 2.063 7.11 2.063 9.709 0 16.437-13.759 16.437-23.17 0-4.357-1.682-9.174-7.109-9.174-5.2 0-12.004 6.575-14.067 17.66l-2.371 12.621zm52.28 4.204c-.078-2.216.381-5.656.916-9.86h-.147c-4.206 8.103-8.869 10.624-13.686 10.624-5.569 0-8.944-4.587-8.944-11.161 0-12.46 8.944-27.062 23.169-27.062 2.6 0 5.505.46 7.414 1.07l-3.898 19.8c-1.299 6.805-1.758 12.7-1.604 16.59h-3.22zm4.902-33.943c-.843-.305-2.141-.535-4.436-.535-10.549 0-18.805 11.774-18.881 23.317-.078 4.74 1.299 9.02 6.267 9.02 5.964 0 12.699-8.942 14.45-18.424l2.6-13.378zm6.946 33.943l4.665-24.693a123.43 123.43 0 0 0 1.758-12.002h3.057c-.306 2.37-.611 4.817-1.07 7.952h.154c2.292-4.902 5.886-8.716 10.471-8.716.463.005.924.055 1.377.152l-.613 3.442a5.938 5.938 0 0 0-1.299-.154c-4.816 0-10.168 7.263-11.698 15.372l-3.44 18.654-3.362-.007zm34.325-44.797l-1.604 8.105h8.637l-.61 2.829h-8.64l-4.052 21.864c-.457 2.45-.764 4.358-.764 6.345 0 2.14.993 3.44 3.288 3.44 1.223 0 1.987-.076 2.673-.306l.223 2.674c-1.165.35-2.377.53-3.593.535-4.358 0-6.04-2.897-6.04-5.962 0-1.99.223-3.901.842-6.728l4.128-21.864h-5.275l.534-2.83h5.347l1.223-6.574 3.683-1.528zm6.191 44.797l4.902-25.916a108.31 108.31 0 0 0 1.682-10.779h3.056l-1 7.493h.154c3.21-5.347 7.797-8.257 12.765-8.257 3.594 0 8.181 2.293 8.181 9.25 0 1.834-.305 3.67-.689 5.657l-4.204 22.552h-3.288l4.282-22.552a29.53 29.53 0 0 0 .535-5.347c0-3.823-1.529-6.574-6.04-6.574-4.901 0-11.772 6.115-13.367 14.984l-3.594 19.494-3.375-.005zm56.649-2.063c-1.911 1.223-5.429 2.752-10.014 2.752-8.564 0-11.544-6.728-11.544-13.762 0-10.549 7.338-24.386 17.889-24.386 6.04 0 8.562 3.975 8.562 8.02 0 9.326-10.694 11.926-22.706 11.85-.381 1.682-.446 6.499.307 9.097 1.299 4.206 4.128 6.193 8.02 6.193 4.05 0 6.804-1.452 8.486-2.45l1 2.686zm-4.281-32.415c-5.657 0-10.779 6.116-12.995 13.99 9.555.077 18.729-1.53 18.729-8.792 0-3.44-2.295-5.198-5.734-5.198zm11.008 34.478l4.665-24.693a123.121 123.121 0 0 0 1.758-12.002h3.058c-.307 2.37-.612 4.817-1.071 7.952h.154c2.292-4.902 5.886-8.716 10.47-8.716a6.92 6.92 0 0 1 1.377.152l-.612 3.442a5.952 5.952 0 0 0-1.299-.154c-4.817 0-10.168 7.263-11.696 15.372l-3.442 18.654-3.362-.007zm18.884-4.28a12.138 12.138 0 0 0 6.498 1.988c4.817 0 8.02-3.44 8.02-7.575 0-3.671-1.528-5.888-4.968-8.105-3.593-2.37-5.583-5.656-5.583-9.02 0-5.735 4.588-10.471 11.01-10.471 2.522 0 5.047.84 6.116 1.682l-1.225 2.831c-1.148-.688-3.135-1.528-5.276-1.528-4.433 0-7.338 3.059-7.338 6.88 0 3.442 1.911 5.347 4.97 7.352 3.515 2.37 5.656 5.732 5.656 9.403 0 7.415-5.427 11.543-11.696 11.543-3.288 0-6.193-1.223-7.416-2.217l1.232-2.762zM106.742 48.824c-2.653-1.439-4.01-2.653-4.01-4.322 0-2.123 1.896-3.486 4.855-3.486 3.444 0 6.521 1.439 6.521 1.439l2.408-7.43s-2.228-1.744-8.796-1.744c-9.134 0-15.47 5.23-15.47 12.587 0 4.17 2.959 7.352 6.907 9.629 3.183 1.82 4.322 3.119 4.322 5.006 0 1.971-1.593 3.564-4.55 3.564-4.406 0-8.568-2.274-8.568-2.274l-2.584 7.43s3.845 2.577 10.313 2.577c9.403 0 16.151-4.625 16.151-12.966.009-4.474-3.404-7.66-7.499-10.01zm37.46-15.628c-4.625 0-8.265 2.199-11.07 5.534l-.154-.074 4.01-21.004h-10.446L116.381 71.12h10.471l3.486-18.269c1.366-6.906 4.931-11.139 8.266-11.139 2.35 0 3.261 1.593 3.261 3.868 0 1.552-.154 3.102-.457 4.625l-3.949 20.912h10.47l4.093-21.61c.453-2.249.707-4.533.76-6.826-.011-5.921-3.122-9.486-8.58-9.486zm32.226 0c-12.587 0-20.924 11.382-20.924 24.045 0 8.114 5.004 14.635 14.408 14.635 12.36 0 20.699-11.07 20.699-24.036-.005-7.515-4.402-14.644-14.183-14.644zm-5.155 30.633c-3.564 0-5.082-3.032-5.082-6.824 0-5.99 3.119-15.771 8.796-15.771 3.716 0 4.928 3.184 4.928 6.294 0 6.454-3.108 16.31-8.642 16.31v-.01zm46.1-30.633c-7.064 0-11.074 6.238-11.074 6.238h-.152l.606-5.612h-9.246c-.445 3.787-1.289 9.555-2.123 13.877l-7.278 38.28h10.471l2.88-15.469h.223s2.148 1.366 6.142 1.366c12.285 0 20.321-12.587 20.321-25.326-.011-7.051-3.11-13.354-10.77-13.354zm-10.007 30.793a6.642 6.642 0 0 1-4.322-1.515l1.744-9.782c1.212-6.521 4.625-10.843 8.263-10.843 3.186 0 4.171 2.956 4.171 5.763-.007 6.749-4.017 16.377-9.856 16.377zm35.712-45.798a5.974 5.974 0 0 0-5.988 6.067c0 3.119 1.971 5.23 4.928 5.23h.151c3.262 0 6.067-2.198 6.142-6.066 0-3.032-2.047-5.23-5.233-5.23z"></path><path d="M228.446 71.117L238.91 71.117 246.037 34.037 235.497 34.037z"></path><path d="M272.65 33.961h-7.278l.379-1.742c.606-3.564 2.729-6.75 6.218-6.75 1.134.002 2.263.181 3.341.532l2.041-8.178s-1.82-.911-5.688-.911c-3.713 0-7.43 1.062-10.234 3.488-3.565 3.033-5.234 7.43-6.067 11.83l-.303 1.743h-4.852l-1.517 7.886h4.852l-5.536 29.27h10.471L264 41.848h7.202l1.448-7.887zm25.175.076s-6.541 16.486-9.479 25.478h-.149c-.203-2.896-2.58-25.478-2.58-25.478h-10.995l6.294 34.046c.152.757.076 1.214-.223 1.744-1.214 2.35-3.261 4.625-5.688 6.294-1.971 1.442-4.17 2.35-5.912 2.956l2.88 8.874c2.124-.446 6.521-2.201 10.249-5.688 4.776-4.473 9.174-11.375 13.723-20.777l12.815-27.449h-10.935z"></path></g></g></g></svg>